<mxfile host="app.diagrams.net" modified="2024-05-08T03:02:45.897Z" agent="Mozilla/5.0 (Windows NT 10.0; Win64; x64) AppleWebKit/537.36 (KHTML, like Gecko) Chrome/123.0.0.0 Safari/537.36" version="24.3.1" etag="mIwwDc4URnxV_ElTJ7_i" type="github">
  <diagram name="Page-1" id="SqNv9mOCQKz6RDw7_bY_">
    <mxGraphModel>
      <root>
        <mxCell id="0" />
        <mxCell id="1" parent="0" />
      </root>
    </mxGraphModel>
  </diagram>
</mxfile>
